<svg width="30" height="30" viewBox="0 0 21 22" fill="none" xmlns="http://www.w3.org/2000/svg">
<path fill-rule="evenodd" clip-rule="evenodd" d="M0.344727 11C0.344727 8.18955 1.41465 5.49421 3.31914 3.50693C5.22362 1.51964 7.80665 0.403198 10.5 0.403198C13.1933 0.403198 15.7764 1.51964 17.6809 3.50693C19.5853 5.49421 20.6553 8.18955 20.6553 11C20.6553 13.8104 19.5853 16.5058 17.6809 18.4931C15.7764 20.4804 13.1933 21.5968 10.5 21.5968C7.80665 21.5968 5.22362 20.4804 3.31914 18.4931C1.41465 16.5058 0.344727 13.8104 0.344727 11ZM10.5 1.9232C8.81396 1.92326 7.16429 2.43461 5.75166 3.39504C4.33903 4.35548 3.22433 5.7236 2.54317 7.33296C1.86202 8.94233 1.64376 10.7236 1.91496 12.46C2.18616 14.1964 2.93512 15.8132 4.07073 17.1136C4.76015 15.9868 5.71065 15.0595 6.83438 14.4174C7.95811 13.7753 9.21882 13.4392 10.5 13.44C11.7812 13.439 13.042 13.7751 14.1657 14.4172C15.2895 15.0593 16.2399 15.9867 16.9293 17.1136C18.0649 15.8132 18.8138 14.1964 19.085 12.46C19.3562 10.7236 19.138 8.94233 18.4568 7.33296C17.7757 5.7236 16.661 4.35548 15.2483 3.39504C13.8357 2.43461 12.186 1.92326 10.5 1.9232ZM15.8391 18.1664C15.2965 17.1906 14.5176 16.3807 13.5806 15.818C12.6435 15.2552 11.5812 14.9593 10.5 14.96C9.41883 14.9593 8.35649 15.2552 7.41943 15.818C6.48238 16.3807 5.70353 17.1906 5.16093 18.1664C6.68623 19.4075 8.56579 20.08 10.5 20.0768C12.5117 20.0768 14.364 19.3632 15.8391 18.1664ZM6.89666 9.408C6.89666 8.41078 7.2763 7.45441 7.95205 6.74928C8.62781 6.04414 9.54433 5.648 10.5 5.648C11.4557 5.648 12.3722 6.04414 13.0479 6.74928C13.7237 7.45441 14.1033 8.41078 14.1033 9.408C14.1033 10.4052 13.7237 11.3616 13.0479 12.0667C12.3722 12.7719 11.4557 13.168 10.5 13.168C9.54433 13.168 8.62781 12.7719 7.95205 12.0667C7.2763 11.3616 6.89666 10.4052 6.89666 9.408ZM10.5 7.168C10.2181 7.168 9.93895 7.22594 9.6785 7.33851C9.41805 7.45108 9.18141 7.61608 8.98207 7.82408C8.78273 8.03208 8.62461 8.27902 8.51673 8.55079C8.40885 8.82256 8.35333 9.11384 8.35333 9.408C8.35333 9.70216 8.40885 9.99344 8.51673 10.2652C8.62461 10.537 8.78273 10.7839 8.98207 10.9919C9.18141 11.1999 9.41805 11.3649 9.6785 11.4775C9.93895 11.5901 10.2181 11.648 10.5 11.648C11.0693 11.648 11.6153 11.412 12.0179 10.9919C12.4205 10.5718 12.6467 10.0021 12.6467 9.408C12.6467 8.81391 12.4205 8.24416 12.0179 7.82408C11.6153 7.404 11.0693 7.168 10.5 7.168Z" fill="black"/>
</svg>
