<svg width="22" height="22" viewBox="0 0 22 22" fill="none" xmlns="http://www.w3.org/2000/svg">
<g clip-path="url(#clip0_15_149)">
<path d="M21.4262 16.3872C21.5477 16.3872 21.6643 16.339 21.7502 16.253L21.4262 16.3872ZM21.4262 16.3872L5.95832 16.3854C5.83677 16.3854 5.72019 16.3371 5.63423 16.2512L21.4262 16.3872ZM15.8026 8.87173L15.4491 8.51817L15.8026 8.87173C15.6229 9.05145 15.3792 9.15242 15.125 9.15242H15.1249L5.95832 9.1515C5.95831 9.1515 5.95829 9.1515 5.95827 9.1515C5.70413 9.15149 5.46039 9.05052 5.28068 8.87081L5.63423 8.51726L5.28067 8.87081C5.10096 8.69109 4.99999 8.44733 4.99999 8.19317C4.99999 7.939 5.10096 7.69525 5.28068 7.51553L5.63423 7.86908L5.28068 7.51552C5.4604 7.3358 5.70416 7.23483 5.95832 7.23483H5.95837L15.125 7.23575C15.125 7.23575 15.125 7.23575 15.125 7.23575C15.3792 7.23576 15.6229 7.33673 15.8026 7.51644C15.9824 7.69616 16.0833 7.93992 16.0833 8.19408C16.0833 8.44825 15.9824 8.692 15.8026 8.87173ZM22.1038 16.6066L22.1038 16.6066C21.9241 16.7863 21.6803 16.8872 21.4262 16.8872H21.4261L5.95832 16.8854C5.9583 16.8854 5.95828 16.8854 5.95826 16.8854C5.70412 16.8854 5.46039 16.7844 5.28068 16.6047L5.61343 16.272L5.28067 16.6047C5.10096 16.425 4.99999 16.1812 4.99999 15.9271C4.99999 15.6729 5.10096 15.4292 5.28068 15.2494C5.4604 15.0697 5.70416 14.9688 5.95832 14.9688H5.95838L21.4262 14.9706C21.4262 14.9706 21.4262 14.9706 21.4262 14.9706C21.6804 14.9706 21.9241 15.0716 22.1038 15.2513C22.2835 15.431 22.3845 15.6747 22.3845 15.9289C22.3845 16.1831 22.2835 16.4268 22.1038 16.6066ZM5.95832 -0.5H5.95835L21.4262 -0.499083C21.4262 -0.499083 21.4262 -0.499083 21.4262 -0.499083C21.6803 -0.499076 21.9241 -0.398109 22.1038 -0.218394C22.2835 -0.0386719 22.3845 0.205084 22.3845 0.45925C22.3845 0.713416 22.2835 0.957172 22.1038 1.13689C21.9241 1.31662 21.6803 1.41758 21.4262 1.41758L21.4261 1.41758L5.95832 1.41667C5.95831 1.41667 5.9583 1.41667 5.95829 1.41667C5.70414 1.41666 5.46039 1.31569 5.28068 1.13598L5.61405 0.802608L5.28068 1.13597C5.10096 0.956253 4.99999 0.712498 4.99999 0.458333C4.99999 0.204169 5.10096 -0.0395859 5.28068 -0.219308L5.28068 -0.219312C5.4604 -0.399034 5.70416 -0.5 5.95832 -0.5Z" fill="white" stroke="white"/>
</g>
<defs>
<clipPath id="clip0_15_149">
<rect width="22" height="22" fill="white" transform="matrix(-1 0 0 1 22 0)"/>
</clipPath>
</defs>
</svg>
